<svg width="10" height="8" viewBox="0 0 10 8" fill="none" xmlns="http://www.w3.org/2000/svg">
<path d="M9.45993 2.01003L4.29993 7.46003C4.27993 7.48003 4.25993 7.50003 4.23993 7.52003C4.14993 7.64003 4.01993 7.72003 3.87993 7.74003C3.84993 7.74003 3.81993 7.75003 3.78993 7.75003C3.66993 7.75003 3.55993 7.71003 3.46993 7.64003C3.43993 7.62003 3.41993 7.60003 3.39993 7.57003L0.169934 4.66003C-0.0500661 4.43003 -0.0500661 4.07003 0.159934 3.83003L0.179934 3.81003C0.399934 3.60003 0.739934 3.61003 0.949934 3.82003L3.78993 6.32003L8.68993 1.15003C8.90993 0.940026 9.24993 0.950026 9.45993 1.16003L9.47993 1.18003C9.67993 1.42003 9.66993 1.77003 9.45993 2.01003Z" fill="white"/>
</svg>
