<svg width="24" height="20" viewBox="0 0 24 20" fill="none" xmlns="http://www.w3.org/2000/svg">
    <g clip-path="url(#bz3eq540ta)" fill="#444">
        <path d="M4.286 0C2.549 0 1.143 1.367 1.143 3.056v5.01a6.191 6.191 0 0 1 1.714-.977V3.056c0-.767.64-1.39 1.429-1.39h16.571c.789 0 1.429.623 1.429 1.39v11.666c0 .767-.64 1.39-1.429 1.39h-9.463l1.714 1.666h7.75c1.736 0 3.142-1.367 3.142-3.056V3.056C24 1.366 22.594 0 20.857 0H4.286z"/>
        <path d="M8.754 7.778a6.302 6.302 0 0 1 1.657 1.666h8.16c.469 0 .858-.377.858-.833 0-.455-.389-.833-.858-.833H8.754zM16.286 12.778h-4.857c0-.578-.08-1.134-.24-1.667h5.097c.468 0 .857.378.857.833 0 .456-.389.834-.857.834zM6.571 4.444c-.468 0-.857.378-.857.834 0 .455.389.833.857.833H14c.469 0 .857-.378.857-.833 0-.456-.388-.834-.857-.834H6.57zM5.143 17.778a5.277 5.277 0 0 0 2.983-.922l2.983 2.9a.88.88 0 0 0 1.211 0 .822.822 0 0 0 0-1.178l-2.983-2.9a4.937 4.937 0 0 0 .949-2.9c0-2.767-2.297-5-5.143-5-2.846 0-5.143 2.233-5.143 5 0 2.766 2.297 5 5.143 5zm0-1.667c-1.897 0-3.429-1.489-3.429-3.333 0-1.845 1.532-3.334 3.429-3.334 1.897 0 3.428 1.49 3.428 3.334S7.04 16.11 5.143 16.11z"/>
    </g>
    <defs>
        <clipPath id="bz3eq540ta">
            <path fill="#fff" d="M0 0h24v20H0z"/>
        </clipPath>
    </defs>
</svg>
