<svg width="14" height="14" viewBox="0 0 14 14" fill="none" xmlns="http://www.w3.org/2000/svg">
    <g clip-path="url(#t2luby42da)">
        <path d="M11.07 9.9c.345.343.685.681 1.023 1.02.55.55 1.102 1.098 1.648 1.65.233.235.317.517.219.838a.792.792 0 0 1-.628.572c-.32.068-.58-.051-.806-.278-.823-.826-1.649-1.65-2.473-2.475-.05-.05-.09-.11-.139-.168-1.579 1.144-3.298 1.532-5.173 1.1-1.484-.341-2.68-1.152-3.571-2.385a6.159 6.159 0 0 1 .777-8.103 6.158 6.158 0 0 1 8.15-.252A6.172 6.172 0 0 1 11.07 9.9zm-4.907.765a4.488 4.488 0 0 0 4.502-4.49 4.49 4.49 0 0 0-4.5-4.511 4.487 4.487 0 0 0-4.5 4.49 4.487 4.487 0 0 0 4.498 4.51z" fill="#fff"/>
    </g>
    <defs>
        <clipPath id="t2luby42da">
            <path fill="#fff" d="M0 0h14v14H0z"/>
        </clipPath>
    </defs>
</svg>
