<svg width="16" height="16" viewBox="0 0 16 16" fill="none" xmlns="http://www.w3.org/2000/svg">
<path d="M7.63589 2.41135L7.63605 2.41122C7.87278 2.22069 8.26726 2.22069 8.50398 2.41122L8.50409 2.41131L13.4659 6.39396L13.3417 13.7333H10.4734L10.4734 9.13332L10.4733 9.13197C10.4659 8.58473 10.0155 8.13332 9.46668 8.13332H6.53335C5.98479 8.13332 5.53335 8.58476 5.53335 9.13332V13.7333H2.66668V6.39466L7.63589 2.41135ZM14.6 6.30601C14.6731 6.00988 14.5146 5.71788 14.2264 5.51965L9.17789 1.46357C8.48037 0.845294 7.39241 0.84554 6.69519 1.45716L1.77977 5.51339C1.50941 5.69978 1.33335 5.97297 1.33335 6.26665V14C1.33335 14.2761 1.45269 14.4831 1.6432 14.6175C1.82947 14.749 2.07687 14.8067 2.33335 14.8067H5.73335C5.98983 14.8067 6.23723 14.749 6.4235 14.6175C6.61401 14.4831 6.73335 14.2761 6.73335 14V9.39999H9.20002V14C9.20002 14.2761 9.31935 14.4831 9.50986 14.6175C9.69613 14.749 9.94353 14.8067 10.2 14.8067H13.6C13.8565 14.8067 14.1039 14.749 14.2902 14.6175C14.4807 14.4831 14.6 14.2761 14.6 14V6.30601Z" fill="white" stroke="white" stroke-width="0.2"/>
</svg>
