<?xml version="1.0" encoding="utf-8"?>
<!-- Generator: Adobe Illustrator 23.0.0, SVG Export Plug-In . SVG Version: 6.00 Build 0)  -->
<svg version="1.1" id="레이어_1" xmlns="http://www.w3.org/2000/svg" xmlns:xlink="http://www.w3.org/1999/xlink" x="0px"
	 y="0px" viewBox="0 0 12 14" style="enable-background:new 0 0 12 14;" xml:space="preserve">
<style type="text/css">
	.st0{fill:#444444;}
</style>
<path class="st0" d="M9.6,14H2.4C1,14,0,12.7,0,11.3c0-0.1,0-0.1,0-0.2C1,8.5,3,6.4,5.6,6.4h1c2.6,0,4.4,2.1,5.4,4.7
	c0,0.1,0,0.1,0,0.2C12,12.7,11,14,9.6,14L9.6,14z M1,11.4c0,0.8,0.7,1.4,1.4,1.4h7.2c0.8,0,1.4-0.6,1.4-1.4
	c-0.8-2.2-2.2-3.9-4.4-3.9h-1C3.4,7.5,1.8,9.2,1,11.4z M6,6.2c-1.6,0-2.9-1.4-2.9-3.1S4.5,0,6,0c1.6,0,2.9,1.4,2.9,3.1
	S7.6,6.2,6,6.2z M6,1c-1,0-1.9,0.9-1.9,2C4.1,4.2,5,5.1,6,5.1c1,0,1.9-0.9,1.9-2.1S7.1,1,6,1z"/>
</svg>
