<svg width="12" height="14" viewBox="0 0 12 14" fill="none" xmlns="http://www.w3.org/2000/svg">
    <path d="M10.884 5.833H9.209V3.354C9.21 1.458 7.744 0 6 0 4.186 0 2.79 1.458 2.79 3.354v2.48H1.117C.488 5.833 0 6.343 0 7v5.833C0 13.49.488 14 1.116 14h9.768c.628 0 1.116-.51 1.116-1.167V7c0-.656-.488-1.167-1.116-1.167zM3.628 3.354C3.628 1.97 4.674.875 6 .875c1.326 0 2.372 1.094 2.372 2.48v2.478H3.628V3.354zm7.535 9.771H.837V6.708h10.326v6.417z" fill="#888"/>
    <path d="M6 11.083c.21 0 .419-.218.419-.437V9.187c0-.218-.21-.437-.419-.437-.21 0-.419.219-.419.438v1.458c0 .219.21.437.419.437z" fill="#888"/>
</svg>
