<?xml version="1.0" encoding="utf-8"?>
<!-- Generator: Adobe Illustrator 23.0.0, SVG Export Plug-In . SVG Version: 6.00 Build 0)  -->
<svg version="1.1" id="레이어_1" xmlns="http://www.w3.org/2000/svg" xmlns:xlink="http://www.w3.org/1999/xlink" x="0px"
	 y="0px" viewBox="0 0 12 14" style="enable-background:new 0 0 12 14;" xml:space="preserve">
<style type="text/css">
	.st0{fill:#444444;}
</style>
<path class="st0" d="M10.9,5.8H9.2V3.4C9.2,1.5,7.7,0,6,0C4.2,0,2.8,1.5,2.8,3.4v2.5H1.1C0.5,5.8,0,6.3,0,7v5.8
	C0,13.5,0.5,14,1.1,14h9.8c0.6,0,1.1-0.5,1.1-1.2V7C12,6.3,11.5,5.8,10.9,5.8z M3.6,3.4c0-1.4,1-2.5,2.4-2.5S8.4,2,8.4,3.4v2.5H3.6
	V3.4z M11.2,13.1H0.8V6.7h10.3V13.1z"/>
<path class="st0" d="M6,11.1c0.2,0,0.4-0.2,0.4-0.4V9.2C6.4,9,6.2,8.8,6,8.8C5.8,8.8,5.6,9,5.6,9.2v1.5C5.6,10.9,5.8,11.1,6,11.1z"
	/>
</svg>
