<svg width="12" height="14" viewBox="0 0 12 14" fill="none" xmlns="http://www.w3.org/2000/svg">
    <path d="M9.62 14H2.38C1.048 14 0 12.718 0 11.282c0-.051 0-.103.048-.205C.952 8.46 2.952 6.41 5.57 6.41h1c2.62 0 4.429 2.051 5.381 4.667 0 .051.048.102.048.205C12 12.718 10.952 14 9.619 14zM.951 11.436c.048.82.667 1.436 1.429 1.436h7.238c.762 0 1.381-.616 1.429-1.436-.81-2.205-2.238-3.949-4.429-3.949h-1c-2.238 0-3.857 1.744-4.667 3.949zM6.048 6.154c-1.572 0-2.858-1.385-2.858-3.077S4.476 0 6.048 0c1.571 0 2.857 1.385 2.857 3.077S7.619 6.154 6.048 6.154zm0-5.128c-1.048 0-1.905.923-1.905 2.05 0 1.13.857 2.052 1.905 2.052 1.047 0 1.904-.923 1.904-2.051 0-1.128-.857-2.051-1.904-2.051z" fill="#888"/>
</svg>
