<svg width="94" height="42" viewBox="0 0 94 42" fill="none" xmlns="http://www.w3.org/2000/svg">
<path d="M55.1537 26.9029C57.625 26.9029 58.9947 27.2478 59.0245 28.8836C59.0443 29.7804 58.419 30.8348 57.7541 31.3473C56.2455 32.5101 54.9155 32.6284 47.839 32.6284H12.9032L19.6522 4.65136H7.99038C7.20631 4.65136 6.91848 4.87802 6.68028 5.79449L0.278691 32.0174C-0.922228 37.2304 1.78728 41.9902 7.8415 41.9902C13.8858 41.9902 18.7292 41.9902 23.8604 41.9902C27.9197 41.9902 33.3486 37.595 35.552 33.535C35.6711 33.3083 35.7505 33.1704 35.8398 32.9831C35.8398 32.9831 35.8894 32.924 35.8993 33.0127C35.552 34.4712 34.3213 39.6349 34.1228 40.4824C33.8647 41.5763 34.4404 42 34.9664 42C34.9664 42 48.0375 42 52.216 42C66.8354 42 72.5522 35.092 73.0484 26.8043C73.3263 22.153 70.3488 19.1375 61.9523 19.1375C61.9523 19.1375 57.7938 19.1375 55.511 19.1375C53.2184 19.1375 50.8662 18.3886 50.8662 16.5359C50.8662 14.6833 53.4268 13.077 56.8807 13.077H72.5819C72.5819 13.077 73.9516 7.61757 74.2295 6.4843C74.5669 5.04554 74.1402 4.63165 73.0782 4.63165H53.665C42.4002 4.63165 37.3384 12.1211 37.3384 17.4524C37.3384 22.8034 41.6757 26.9127 52.8611 26.9127L55.1537 26.9029Z" fill="#003378"/>
<path d="M62.7066 0H94L77.9017 8.19897C77.9017 8.19897 78.5468 5.50868 78.7453 4.71047C78.9438 3.86298 78.6759 3.22243 77.465 2.97607C76.2641 2.73956 62.7066 0 62.7066 0Z" fill="#E6003E"/>
</svg>
