<svg width="20" height="20" viewBox="0 0 20 20" fill="none" xmlns="http://www.w3.org/2000/svg">
<g clip-path="url(#clip0_22_272)">
<path d="M15.8148 14.1431C16.3071 14.6337 16.7922 15.1164 17.2758 15.5999C18.0612 16.3852 18.8498 17.1682 19.6304 17.9574C19.9623 18.2924 20.0832 18.6961 19.9425 19.1551C19.8058 19.5999 19.4985 19.8757 19.0457 19.972C18.5882 20.0692 18.2161 19.8986 17.8945 19.5747C16.7188 18.3943 15.5391 17.218 14.3618 16.0384C14.2907 15.9665 14.2314 15.882 14.1627 15.799C11.9076 17.4336 9.45186 17.9875 6.77328 17.3712C4.65255 16.883 2.94506 15.724 1.67057 13.963C-0.928992 10.3675 -0.444637 5.40361 2.78071 2.38722C6.03371 -0.655242 10.9974 -0.806931 14.425 2.02775C17.9387 4.93275 18.7526 10.2118 15.8148 14.1431ZM8.80394 15.2357C12.3635 15.2365 15.2254 12.3829 15.2349 8.82293C15.2452 5.2543 12.3793 2.3809 8.80789 2.37695C5.25069 2.373 2.38643 5.23059 2.37774 8.79054C2.36905 12.3615 5.2333 15.2349 8.80394 15.2357Z" fill="#C0C0C0"/>
</g>
<defs>
<clipPath id="clip0_22_272">
<rect width="20" height="20" fill="white"/>
</clipPath>
</defs>
</svg>
