<?xml version="1.0" encoding="utf-8"?>
<!-- Generator: Adobe Illustrator 23.0.1, SVG Export Plug-In . SVG Version: 6.00 Build 0)  -->
<svg version="1.1" id="레이어_1" xmlns="http://www.w3.org/2000/svg" xmlns:xlink="http://www.w3.org/1999/xlink" x="0px"
	 y="0px" viewBox="0 0 28 28" style="enable-background:new 0 0 28 28;" xml:space="preserve">
<style type="text/css">
	.st0{fill:#002866;}
</style>
<g>
	<path class="st0" d="M28,14.3C27.8,22,21.5,28.1,13.7,28C6,27.9-0.1,21.5,0,13.7C0.1,6,6.5-0.2,14.3,0C22,0.2,28.1,6.5,28,14.3z
		 M1.9,14c0,6.7,5.4,12.1,12.1,12.1s12.2-5.4,12.2-12.2c0-6.7-5.5-12.1-12.2-12.1C7.3,1.9,1.8,7.3,1.9,14z"/>
	<path class="st0" d="M14.9,7.9c-0.1,0.4,0.1,0.6,0.5,0.8c0.7,0.3,1.1,0.8,1.4,1.5c0.2,0.5,0.1,1-0.4,1.3c-0.5,0.2-1,0.1-1.3-0.4
		c-0.2-0.4-0.4-0.6-0.8-0.8c-0.7-0.3-1.5,0.1-1.7,0.9c-0.2,0.8,0.2,1.6,1,1.8c0.3,0.1,0.5,0.1,0.8,0.1c1.5,0.2,2.6,1.4,2.8,2.9
		c0.2,1.4-0.7,2.8-2.1,3.3c-0.2,0.1-0.2,0.2-0.2,0.3c0,0.3,0,0.5,0,0.8c0,0.5-0.4,0.9-0.9,0.9s-0.9-0.4-0.9-0.9c0-0.3,0-0.5,0-0.8
		c0-0.2-0.1-0.2-0.2-0.3c-0.8-0.3-1.4-0.8-1.8-1.6c-0.3-0.5-0.1-1.1,0.4-1.3c0.5-0.2,1,0,1.3,0.5c0.4,0.7,1,1,1.7,0.8
		c0.6-0.2,1-0.8,0.9-1.5C15.3,15.5,14.8,15,14,15c-1.4-0.1-2.6-0.9-3-2.3c-0.4-1.3,0-2.7,1-3.5c0.3-0.2,0.6-0.4,1-0.5
		c0.2-0.1,0.2-0.1,0.2-0.3c0-0.3,0-0.5,0-0.8c0-0.6,0.4-0.9,0.9-0.9s0.9,0.4,0.9,1C14.9,7.6,14.9,7.7,14.9,7.9z"/>
</g>
</svg>
