<?xml version="1.0" encoding="utf-8"?>
<!-- Generator: Adobe Illustrator 23.0.1, SVG Export Plug-In . SVG Version: 6.00 Build 0)  -->
<svg version="1.1" id="레이어_1" xmlns="http://www.w3.org/2000/svg" xmlns:xlink="http://www.w3.org/1999/xlink" x="0px"
	 y="0px" viewBox="0 0 28 28" style="enable-background:new 0 0 28 28;" xml:space="preserve">
<style type="text/css">
	.st0{fill:#002866;}
</style>
<g>
	<path class="st0" d="M6.3,28c-0.4-0.1-0.9-0.2-1.3-0.4c-1.7-0.9-2.6-2.2-2.6-4.1c0-5.5,0-11,0-16.5c0-1,0-1.9,0-2.9
		c0.1-2,1.7-3.8,3.6-4C6.4,0,6.7,0,7,0c4.4,0,8.8,0,13.2,0c2.1,0,3.8,1.3,4.4,3.4c0.1,0.3,0.1,0.7,0.1,1.1c0,2.2,0,4.3,0,6.5
		c0,0.6-0.3,1-0.8,1.2c-0.6,0.2-1.2-0.3-1.3-0.9c0-0.1,0-0.3,0-0.4c0-2.1,0-4.2,0-6.3c0-0.8-0.2-1.4-0.8-1.9
		c-0.4-0.3-0.9-0.5-1.4-0.5c-4.4,0-8.8,0-13.3,0c-1.3,0-2.2,0.9-2.2,2.2c0,0.2,0,0.3,0,0.5c0,6.2,0,12.3,0,18.5
		c0,0.8,0.2,1.4,0.9,1.9C6,25.7,6.4,25.8,7,25.8c1.2,0,2.3,0,3.5,0c0.5,0,0.9,0.3,1,0.7c0.2,0.4,0,0.9-0.3,1.2
		c-0.1,0.1-0.3,0.2-0.5,0.3C9.3,28,7.8,28,6.3,28z"/>
	<path class="st0" d="M13.5,6.6c1.9,0,3.7,0,5.6,0c0.9,0,1.4,0.9,1,1.6c-0.2,0.3-0.5,0.5-0.9,0.5c-0.2,0-0.4,0-0.6,0
		c-3.5,0-7,0-10.6,0c-0.8,0-1.3-0.5-1.2-1.3C6.9,6.9,7.4,6.6,8,6.6c1.5,0,3,0,4.5,0C12.8,6.6,13.2,6.6,13.5,6.6z"/>
	<path class="st0" d="M13.6,13.1c-1.8,0-3.7,0-5.5,0c-0.8,0-1.2-0.5-1.1-1.3c0.1-0.5,0.5-0.9,1-0.9c0.1,0,0.1,0,0.2,0
		c3.7,0,7.3,0,11,0c0.7,0,1.1,0.4,1.2,0.9c0.1,0.7-0.4,1.3-1.1,1.3c-1.4,0-2.8,0-4.2,0C14.5,13.1,14,13.1,13.6,13.1z"/>
	<path class="st0" d="M11.4,17.5c-1.1,0-2.3,0-3.4,0c-0.5,0-0.8-0.2-1-0.7c-0.2-0.4-0.1-0.8,0.2-1.2c0.2-0.2,0.5-0.3,0.8-0.3
		c2.3,0,4.6,0,6.8,0c0.6,0,1.1,0.5,1.1,1.1s-0.5,1.1-1.1,1.1C13.6,17.5,12.5,17.5,11.4,17.5z"/>
	<g>
		<path class="st0" d="M27.4,17.6c-0.2-1.3-1-2.2-2.2-2.6c-1.3-0.4-2.4-0.1-3.3,0.8c-2,2-3.9,3.9-5.9,5.9c-0.2,0.2-0.3,0.4-0.4,0.6
			c-0.4,1.4-0.8,2.8-1.3,4.1c-0.2,0.7,0.1,1.2,0.7,1.4c0,0,0,0,0.1,0s0.3,0,0.4,0c0.1-0.1,0.2-0.1,0.3-0.1c1.3-0.4,2.6-0.7,3.9-1.1
			c0.4-0.1,0.7-0.3,0.9-0.5c1.8-1.8,3.7-3.7,5.5-5.5c0.2-0.2,0.3-0.3,0.5-0.5C27.4,19.5,27.6,18.6,27.4,17.6z M23.1,20.8
			c-1.3,1.3-2.5,2.5-3.8,3.8c-0.1,0.1-0.1,0.1-0.2,0.1c-0.7,0.2-1.4,0.4-2.1,0.6c0.2-0.7,0.4-1.4,0.6-2c0-0.1,0.1-0.2,0.2-0.2
			c1.2-1.2,2.5-2.5,3.7-3.7c0.1-0.2,0.2-0.1,0.4,0c0.4,0.4,0.8,0.8,1.2,1.2C23.2,20.7,23.2,20.7,23.1,20.8z M24.8,19.1
			c-0.5-0.5-0.9-0.9-1.4-1.4c-0.1-0.1-0.1-0.2,0-0.3c0.5-0.5,1.2-0.5,1.7,0C25.5,17.9,25.4,18.6,24.8,19.1z"/>
	</g>
</g>
</svg>
