<?xml version="1.0" encoding="utf-8"?>
<!-- Generator: Adobe Illustrator 23.0.1, SVG Export Plug-In . SVG Version: 6.00 Build 0)  -->
<svg version="1.1" id="레이어_1" xmlns="http://www.w3.org/2000/svg" xmlns:xlink="http://www.w3.org/1999/xlink" x="0px"
	 y="0px" viewBox="0 0 28 28" style="enable-background:new 0 0 28 28;" xml:space="preserve">
<style type="text/css">
	.st0{fill:#002866;}
</style>
<g>
	<path class="st0" d="M13.1,0c0.6,0,1.2,0,1.7,0c0.1,0,0.1,0,0.2,0c0.9,0.2,1.8,0.2,2.6,0.5c5.5,1.7,8.9,5.4,10.1,11.1
		c0.1,0.5,0.1,1,0.2,1.5c0,0.6,0,1.2,0,1.7c0,0.1,0,0.1,0,0.2c-0.1,0.7-0.2,1.3-0.3,2c-1.3,6.2-7,10.8-13.3,10.9
		c-2.9,0-5.6-0.7-8.1-2.3c-3.3-2.2-5.3-5.3-6.1-9.2c-0.1-0.5-0.1-1-0.2-1.6c0-0.6,0-1.2,0-1.7C0,13,0,13,0,12.9
		c0.1-0.7,0.2-1.4,0.3-2.1C1.6,5.3,6.1,1.1,11.6,0.2C12.1,0.1,12.6,0.1,13.1,0z M2.2,14c0,6.5,5.3,11.8,11.8,11.8S25.8,20.5,25.8,14
		S20.5,2.2,14,2.2C7.5,2.2,2.2,7.4,2.2,14z"/>
	<path class="st0" d="M15.1,11.6c0,1.1,0,2.3,0,3.4c0,0.7-0.5,1.2-1.1,1.2s-1.1-0.5-1.1-1.2c0-2.3,0-4.6,0-6.9
		c0-0.7,0.5-1.2,1.1-1.2s1.1,0.5,1.1,1.2C15.1,9.4,15.1,10.5,15.1,11.6z"/>
	<path class="st0" d="M14,20.6c-0.8,0-1.5-0.6-1.5-1.5c0-0.8,0.7-1.5,1.5-1.5s1.5,0.7,1.5,1.5S14.8,20.6,14,20.6z"/>
</g>
</svg>
