<?xml version="1.0" encoding="utf-8"?>
<!-- Generator: Adobe Illustrator 23.0.1, SVG Export Plug-In . SVG Version: 6.00 Build 0)  -->
<svg version="1.1" id="레이어_1" xmlns="http://www.w3.org/2000/svg" xmlns:xlink="http://www.w3.org/1999/xlink" x="0px"
	 y="0px" viewBox="0 0 28 28" style="enable-background:new 0 0 28 28;" xml:space="preserve">
<style type="text/css">
	.st0{fill:#BBBBBB;}
</style>
<g>
	<path class="st0" d="M26.6,4.3c0-1.7-1.2-2.9-2.9-2.9c-0.8,0-1.6,0-2.5,0c-0.2,0-0.2,0-0.3-0.2C20.8,0.4,20.3,0,19.6,0
		c-3.7,0-7.4,0-11.1,0C7.7,0,7.2,0.4,7,1.2c0,0.2-0.1,0.2-0.3,0.2c-0.8,0-1.6,0-2.4,0c-1.8,0-3,1.2-3,3c0,6.9,0,13.7,0,20.6
		c0,1.8,1.2,3,3,3c6.4,0,12.9,0,19.3,0c0.2,0,0.5,0,0.7,0c1.4-0.3,2.3-1.4,2.3-2.8c0-3.5,0-7,0-10.4C26.6,11.2,26.6,7.8,26.6,4.3z
		 M23.5,25.2c-6.3,0-12.6,0-19,0c-0.3,0-0.4-0.1-0.4-0.4c0-6.8,0-13.5,0-20.3c0-0.3,0.1-0.4,0.3-0.3c0.7,0,1.5,0,2.2,0
		C6.9,4.2,7,4.3,7,4.4C7,5.2,7,6,7,6.7C7,6.9,7,7,7.2,7c4.5,0,9,0,13.6,0C21,7,21,6.9,21,6.7c0-0.8,0-1.5,0-2.3
		c0-0.2,0.1-0.3,0.3-0.3c0.7,0,1.5,0,2.2,0c0.3,0,0.3,0.1,0.3,0.3c0,3.4,0,6.8,0,10.2s0,6.8,0,10.1C23.8,25.1,23.8,25.2,23.5,25.2z"
		/>
	<path class="st0" d="M17.9,10.9c-0.1,0.1-0.2,0.2-0.3,0.3c-1.6,1.6-3.2,3.2-4.8,4.8c-0.2,0.2-0.3,0.2-0.4,0
		c-0.7-0.7-1.4-1.4-2.1-2.1c-0.2-0.2-0.2-0.2-0.4,0c-0.5,0.5-1,1.1-1.6,1.6c-0.2,0.2-0.2,0.3,0,0.4c1.4,1.4,2.7,2.7,4.1,4.1
		c0.2,0.2,0.2,0.2,0.4,0c1.2-1.3,2.5-2.5,3.7-3.7c1.1-1.1,2.1-2.1,3.2-3.2c0.1-0.1,0.2-0.1,0.1-0.3C19.2,12.2,18.6,11.5,17.9,10.9z"
		/>
</g>
</svg>
