<?xml version="1.0" encoding="utf-8"?>
<!-- Generator: Adobe Illustrator 23.0.1, SVG Export Plug-In . SVG Version: 6.00 Build 0)  -->
<svg version="1.1" id="레이어_1" xmlns="http://www.w3.org/2000/svg" xmlns:xlink="http://www.w3.org/1999/xlink" x="0px"
	 y="0px" viewBox="0 0 28 28" style="enable-background:new 0 0 28 28;" xml:space="preserve">
<style type="text/css">
	.st0{fill:#002866;}
</style>
<g>
	<path class="st0" d="M6.5,9.3c0.8,0,1.7,0,2.5,0s1.4,0.6,1.4,1.3c0,0.8-0.6,1.3-1.3,1.4c-1.7,0-3.4,0-5.1,0c-0.8,0-1.3-0.6-1.3-1.4
		c0-0.8,0.6-1.3,1.4-1.3C4.8,9.3,5.6,9.3,6.5,9.3z"/>
	<path class="st0" d="M3.3,13.3c0.6,0,1.3,0,1.9,0c0.8,0,1.3,0.6,1.4,1.3c0,0.8-0.5,1.4-1.3,1.4c-1.3,0-2.6,0-3.8,0
		C0.6,16,0,15.4,0,14.7c0-0.8,0.6-1.3,1.4-1.3C2,13.3,2.6,13.3,3.3,13.3z"/>
	<path class="st0" d="M2.6,20c0,0.7-0.6,1.3-1.3,1.3S0,20.8,0,20c0-0.7,0.6-1.4,1.3-1.4C2,18.7,2.6,19.3,2.6,20z"/>
	<path class="st0" d="M3.9,5.3c0,0.7-0.6,1.3-1.3,1.3S1.3,6,1.3,5.3C1.3,4.6,1.9,4,2.6,4S3.9,4.6,3.9,5.3z"/>
	<g>
		<path class="st0" d="M24.9,6.7c-0.6-0.1-1.3,0-1.9,0c-0.1,0-0.2,0-0.3-0.2C22.1,4.8,21,4,19.3,4c-2.1,0-4.1,0-6.2,0
			c-0.5,0-0.9,0-1.4,0C10,4,8.2,4,6.5,4C5.8,4,5.3,4.5,5.2,5.1C5.1,5.8,5.5,6.4,6.1,6.6c0.2,0.1,0.4,0,0.6,0c4.2,0,8.3,0,12.5,0
			c0.9,0,1.2,0.5,1.1,1.4c-0.5,2.6-0.9,5.2-1.4,7.8c0,0.2-0.1,0.3-0.3,0.3c-1.3,0.3-2.2,1.1-2.7,2.3c-0.1,0.2-0.2,0.2-0.3,0.2
			c-0.9,0-1.7,0-2.6,0c-0.2,0-0.2,0-0.3-0.2C12,16.8,10.8,16,9.1,16s-2.9,0.9-3.6,2.4c-0.1,0.2-0.1,0.2-0.3,0.2
			c-0.8,0-1.3,0.6-1.3,1.3c0,0.7,0.6,1.3,1.3,1.3c0.2,0,0.2,0.1,0.3,0.2C6.2,23.1,7.4,24,9.1,24s2.9-0.9,3.6-2.5
			c0.1-0.1,0.1-0.2,0.3-0.2c0.9,0,1.8,0,2.7,0c0.2,0,0.2,0.1,0.3,0.2c0.7,1.6,1.9,2.4,3.6,2.5c1.7,0,2.9-0.9,3.6-2.5
			c0.1-0.2,0.1-0.2,0.3-0.2c1.5-0.2,2.6-1.2,2.9-2.7c0.6-2.5,1.1-5.1,1.7-7.6C28.3,8.9,26.9,6.9,24.9,6.7z M9.1,21.3
			c-0.7,0-1.3-0.6-1.3-1.3c0-0.7,0.6-1.4,1.3-1.3c0.7,0,1.3,0.6,1.3,1.4C10.4,20.8,9.8,21.3,9.1,21.3z M19.4,21.3
			c-0.7,0-1.3-0.6-1.3-1.3c0-0.7,0.6-1.3,1.3-1.3c0.7,0,1.3,0.6,1.3,1.4C20.7,20.8,20.2,21.3,19.4,21.3z M25.4,10.5
			c-0.4,2.1-0.9,4.1-1.3,6.2c-0.1,0.4-0.2,0.8-0.3,1.2c0,0.1-0.1,0.3-0.2,0.4s-0.2,0.3-0.4,0.3c-0.2,0-0.2-0.2-0.3-0.3
			c-0.3-0.6-0.8-1.2-1.4-1.6c-0.1-0.1-0.2-0.2-0.2-0.4c0.4-2.2,0.8-4.5,1.2-6.7c0-0.2,0.1-0.3,0.3-0.3c0.3,0,0.5,0,0.8,0
			s0.5,0,0.8,0C25.1,9.3,25.5,9.9,25.4,10.5z"/>
	</g>
</g>
</svg>
