<?xml version="1.0" encoding="utf-8"?>
<!-- Generator: Adobe Illustrator 23.0.1, SVG Export Plug-In . SVG Version: 6.00 Build 0)  -->
<svg version="1.1" id="레이어_1" xmlns="http://www.w3.org/2000/svg" xmlns:xlink="http://www.w3.org/1999/xlink" x="0px"
	 y="0px" viewBox="0 0 17 8.5" style="enable-background:new 0 0 17 8.5;" xml:space="preserve">
<style type="text/css">
	.st0{fill:#002866;}
</style>
<path class="st0" d="M16.7,1.9L9.4,8.2C9,8.6,8.3,8.6,7.9,8.2L0.3,2C0.1,1.8,0,1.5,0,1.2C0,1,0.1,0.7,0.3,0.5
	c0.2-0.2,0.5-0.3,0.8-0.3h0c0.3,0,0.5,0.1,0.7,0.3l6.8,5.5l6.5-5.6c0.4-0.4,1.1-0.4,1.5,0C16.9,0.5,17,0.8,17,1.1
	C17,1.4,16.9,1.7,16.7,1.9"/>
</svg>
