<?xml version="1.0" encoding="utf-8"?>
<!-- Generator: Adobe Illustrator 23.0.1, SVG Export Plug-In . SVG Version: 6.00 Build 0)  -->
<svg version="1.1" id="레이어_1" xmlns="http://www.w3.org/2000/svg" xmlns:xlink="http://www.w3.org/1999/xlink" x="0px"
	 y="0px" viewBox="0 0 17 8.5" style="enable-background:new 0 0 17 8.5;" xml:space="preserve">
<style type="text/css">
	.st0{fill:#002866;}
</style>
<path class="st0" d="M0.3,6.6l7.3-6.3c0.4-0.4,1.1-0.4,1.5,0l7.5,6.2C16.9,6.7,17,7,17,7.3c0,0.3-0.1,0.6-0.3,0.8
	c-0.2,0.2-0.5,0.3-0.8,0.3h0c-0.3,0-0.5-0.1-0.7-0.3L8.4,2.6L1.9,8.2c-0.4,0.4-1.1,0.4-1.5,0C0.1,8,0,7.7,0,7.4
	C0,7.1,0.1,6.8,0.3,6.6"/>
</svg>
