<?xml version="1.0" encoding="utf-8"?>
<!-- Generator: Adobe Illustrator 23.0.1, SVG Export Plug-In . SVG Version: 6.00 Build 0)  -->
<svg version="1.1" id="레이어_1" xmlns="http://www.w3.org/2000/svg" xmlns:xlink="http://www.w3.org/1999/xlink" x="0px"
	 y="0px" viewBox="0 0 14 14" style="enable-background:new 0 0 14 14;" xml:space="preserve">
<style type="text/css">
	.st0{fill:#333333;}
</style>
<path class="st0" d="M8.6,7l5.1-5.1c0.4-0.4,0.4-1.1,0-1.5C13.4,0.2,13.2,0,12.9,0c-0.4,0-0.6,0.1-0.8,0.3L7,5.4L1.9,0.3
	C1.7,0.1,1.4,0,1.1,0S0.6,0.1,0.3,0.3c-0.4,0.4-0.4,1.2,0,1.6L5.4,7l-5.1,5.1C0.1,12.3,0,12.6,0,12.9c0,0.3,0.1,0.6,0.3,0.8
	c0.4,0.4,1.2,0.4,1.6,0L7,8.6l5.1,5.1l0,0c0.4,0.4,1.2,0.4,1.6,0c0.4-0.4,0.4-1.2,0-1.6L8.6,7z"/>
</svg>
